
/*
 * A valid block comment
 */

// A valid line comment

# An invalid comment that we should handle properly anyway



<global>
sw_default=70

<group>
sw_lokey=70
sw_hikey=72
sw_last=70
bend_up=1200
bend_down=-1200
ampeg_release=0.800

<region>
sample=arco\arco_c1_pp_down.wav
lokey=12
hikey=24
hivel=15
seq_length=2
pitch_keycenter=24
amp_velcurve_15=1

<region>
sample=arco\arco_c1_pp_up.wav
lokey=12
hikey=24
hivel=15
seq_length=2
seq_position=2
pitch_keycenter=24
amp_velcurve_15=1

<region>
sample=arco\arco_c1_p_down.wav
lokey=12
hikey=24
lovel=16
hivel=59
seq_length=2
pitch_keycenter=24
amp_velcurve_59=1

<region>
sample=arco\arco_c1_p_up.wav
lokey=12
hikey=24
lovel=16
hivel=59
seq_length=2
seq_position=2
pitch_keycenter=24
amp_velcurve_59=1

<region>
sample=arco\arco_c1_mf_down.wav
lokey=12
hikey=24
lovel=60
hivel=102
seq_length=2
pitch_keycenter=24
amp_velcurve_102=1

<region>
sample=arco\arco_c1_mf_up.wav
lokey=12
hikey=24
lovel=60
hivel=102
seq_length=2
seq_position=2
pitch_keycenter=24
amp_velcurve_102=1

<region>
sample=arco\arco_c1_f_down.wav
lokey=12
hikey=24
lovel=103
hivel=124
seq_length=2
pitch_keycenter=24
amp_velcurve_124=1

<region>
sample=arco\arco_c1_f_up.wav
lokey=12
hikey=24
lovel=103
hivel=124
seq_length=2
seq_position=2
pitch_keycenter=24
amp_velcurve_124=1

<region>
sample=arco\arco_c1_ff_down.wav
lokey=12
hikey=24
lovel=125
seq_length=2
pitch_keycenter=24

<region>
sample=arco\arco_c1_ff_up.wav
lokey=12
hikey=24
lovel=125
seq_length=2
seq_position=2
pitch_keycenter=24

<region>
sample=arco\arco_eb1_pp_down.wav
lokey=25
hikey=27
hivel=15
seq_length=2
pitch_keycenter=27
amp_velcurve_15=1

<region>
sample=arco\arco_eb1_pp_up.wav
lokey=25
hikey=27
hivel=15
seq_length=2
seq_position=2
pitch_keycenter=27
amp_velcurve_15=1

<region>
sample=arco\arco_eb1_p_down.wav
lokey=25
hikey=27
lovel=16
hivel=59
seq_length=2
pitch_keycenter=27
amp_velcurve_59=1

<region>
sample=arco\arco_eb1_p_up.wav
lokey=25
hikey=27
lovel=16
hivel=59
seq_length=2
seq_position=2
pitch_keycenter=27
amp_velcurve_59=1

<region>
sample=arco\arco_eb1_mf_down.wav
lokey=25
hikey=27
lovel=60
hivel=102
seq_length=2
pitch_keycenter=27
amp_velcurve_102=1

<region>
sample=arco\arco_eb1_mf_up.wav
lokey=25
hikey=27
lovel=60
hivel=102
seq_length=2
seq_position=2
pitch_keycenter=27
amp_velcurve_102=1

<region>
sample=arco\arco_eb1_f_down.wav
lokey=25
hikey=27
lovel=103
hivel=124
seq_length=2
pitch_keycenter=27
amp_velcurve_124=1

<region>
sample=arco\arco_eb1_f_up.wav
lokey=25
hikey=27
lovel=103
hivel=124
seq_length=2
seq_position=2
pitch_keycenter=27
amp_velcurve_124=1

<region>
sample=arco\arco_eb1_ff_down.wav
lokey=25
hikey=27
lovel=125
seq_length=2
pitch_keycenter=27

<region>
sample=arco\arco_eb1_ff_up.wav
lokey=25
hikey=27
lovel=125
seq_length=2
seq_position=2
pitch_keycenter=27

<region>
sample=arco\arco_f1_pp_down.wav
lokey=28
hikey=29
hivel=15
seq_length=2
pitch_keycenter=29
amp_velcurve_15=1

<region>
sample=arco\arco_f1_pp_up.wav
lokey=28
hikey=29
hivel=15
seq_length=2
seq_position=2
pitch_keycenter=29
amp_velcurve_15=1

<region>
sample=arco\arco_f1_p_down.wav
lokey=28
hikey=29
lovel=16
hivel=59
seq_length=2
pitch_keycenter=29
amp_velcurve_59=1

<region>
sample=arco\arco_f1_p_up.wav
lokey=28
hikey=29
lovel=16
hivel=59
seq_length=2
seq_position=2
pitch_keycenter=29
amp_velcurve_59=1

<region>
sample=arco\arco_f1_mf_down.wav
lokey=28
hikey=29
lovel=60
hivel=102
seq_length=2
pitch_keycenter=29
amp_velcurve_102=1

<region>
sample=arco\arco_f1_mf_up.wav
lokey=28
hikey=29
lovel=60
hivel=102
seq_length=2
seq_position=2
pitch_keycenter=29
amp_velcurve_102=1

<region>
sample=arco\arco_f1_f_down.wav
lokey=28
hikey=29
lovel=103
hivel=124
seq_length=2
pitch_keycenter=29
amp_velcurve_124=1

<region>
sample=arco\arco_f1_f_up.wav
lokey=28
hikey=29
lovel=103
hivel=124
seq_length=2
seq_position=2
pitch_keycenter=29
amp_velcurve_124=1

<region>
sample=arco\arco_f1_ff_down.wav
lokey=28
hikey=29
lovel=125
seq_length=2
pitch_keycenter=29

<region>
sample=arco\arco_g1_ff_up.wav
lokey=28
hikey=31
lovel=125
seq_length=2
seq_position=2
pitch_keycenter=31

<region>
sample=arco\arco_g1_pp_down.wav
lokey=30
hikey=31
hivel=15
seq_length=2
pitch_keycenter=31
amp_velcurve_15=1

<region>
sample=arco\arco_g1_pp_up.wav
lokey=30
hikey=31
hivel=15
seq_length=2
seq_position=2
pitch_keycenter=31
amp_velcurve_15=1

<region>
sample=arco\arco_g1_p_down.wav
lokey=30
hikey=31
lovel=16
hivel=59
seq_length=2
pitch_keycenter=31
amp_velcurve_59=1

<region>
sample=arco\arco_g1_p_up.wav
lokey=30
hikey=31
lovel=16
hivel=59
seq_length=2
seq_position=2
pitch_keycenter=31
amp_velcurve_59=1

<region>
sample=arco\arco_g1_mf_down.wav
lokey=30
hikey=31
lovel=60
hivel=102
seq_length=2
pitch_keycenter=31
amp_velcurve_102=1

<region>
sample=arco\arco_g1_mf_up.wav
lokey=30
hikey=31
lovel=60
hivel=102
seq_length=2
seq_position=2
pitch_keycenter=31
amp_velcurve_102=1

<region>
sample=arco\arco_g1_f_down.wav
lokey=30
hikey=31
lovel=103
hivel=124
seq_length=2
pitch_keycenter=31
amp_velcurve_124=1

<region>
sample=arco\arco_g1_f_up.wav
lokey=30
hikey=31
lovel=103
hivel=124
seq_length=2
seq_position=2
pitch_keycenter=31
amp_velcurve_124=1

<region>
sample=arco\arco_g1_ff_down.wav
lokey=30
hikey=31
lovel=125
seq_length=2
pitch_keycenter=31

<region>
sample=arco\arco_bb1_pp_down.wav
lokey=32
hikey=34
hivel=15
seq_length=2
pitch_keycenter=34
amp_velcurve_15=1

<region>
sample=arco\arco_bb1_pp_up.wav
lokey=32
hikey=34
hivel=15
seq_length=2
seq_position=2
pitch_keycenter=34
amp_velcurve_15=1

<region>
sample=arco\arco_bb1_p_down.wav
lokey=32
hikey=34
lovel=16
hivel=59
seq_length=2
pitch_keycenter=34
amp_velcurve_59=1

<region>
sample=arco\arco_bb1_p_up.wav
lokey=32
hikey=34
lovel=16
hivel=59
seq_length=2
seq_position=2
pitch_keycenter=34
amp_velcurve_59=1

<region>
sample=arco\arco_bb1_mf_down.wav
lokey=32
hikey=34
lovel=60
hivel=102
seq_length=2
pitch_keycenter=34
amp_velcurve_102=1

<region>
sample=arco\arco_bb1_mf_up.wav
lokey=32
hikey=34
lovel=60
hivel=102
seq_length=2
seq_position=2
pitch_keycenter=34
amp_velcurve_102=1

<region>
sample=arco\arco_bb1_f_down.wav
lokey=32
hikey=34
lovel=103
hivel=124
seq_length=2
pitch_keycenter=34
amp_velcurve_124=1

<region>
sample=arco\arco_bb1_f_up.wav
lokey=32
hikey=34
lovel=103
hivel=124
seq_length=2
seq_position=2
pitch_keycenter=34
amp_velcurve_124=1

<region>
sample=arco\arco_bb1_ff_down.wav
lokey=32
hikey=34
lovel=125
seq_length=2
pitch_keycenter=34

<region>
sample=arco\arco_bb1_ff_up.wav
lokey=32
hikey=34
lovel=125
seq_length=2
seq_position=2
pitch_keycenter=34

<region>
sample=arco\arco_c2_pp_down.wav
lokey=35
hikey=36
hivel=15
seq_length=2
pitch_keycenter=36
amp_velcurve_15=1

<region>
sample=arco\arco_c2_pp_up.wav
lokey=35
hikey=36
hivel=15
seq_length=2
seq_position=2
pitch_keycenter=36
amp_velcurve_15=1

<region>
sample=arco\arco_c2_p_down.wav
lokey=35
hikey=36
lovel=16
hivel=59
seq_length=2
pitch_keycenter=36
amp_velcurve_59=1

<region>
sample=arco\arco_c2_p_up.wav
lokey=35
hikey=36
lovel=16
hivel=59
seq_length=2
seq_position=2
pitch_keycenter=36
amp_velcurve_59=1

<region>
sample=arco\arco_c2_mf_down.wav
lokey=35
hikey=36
lovel=60
hivel=102
seq_length=2
pitch_keycenter=36
amp_velcurve_102=1

<region>
sample=arco\arco_c2_mf_up.wav
lokey=35
hikey=36
lovel=60
hivel=102
seq_length=2
seq_position=2
pitch_keycenter=36
amp_velcurve_102=1

<region>
sample=arco\arco_c2_f_down.wav
lokey=35
hikey=36
lovel=103
hivel=124
seq_length=2
pitch_keycenter=36
amp_velcurve_124=1

<region>
sample=arco\arco_c2_f_up.wav
lokey=35
hikey=36
lovel=103
hivel=124
seq_length=2
seq_position=2
pitch_keycenter=36
amp_velcurve_124=1

<region>
sample=arco\arco_c2_ff_down.wav
lokey=35
hikey=36
lovel=125
seq_length=2
pitch_keycenter=36

<region>
sample=arco\arco_c2_ff_up.wav
lokey=35
hikey=36
lovel=125
seq_length=2
seq_position=2
pitch_keycenter=36

<region>
sample=arco\arco_d2_pp_down.wav
lokey=37
hikey=38
hivel=15
seq_length=2
pitch_keycenter=38
amp_velcurve_15=1

<region>
sample=arco\arco_d2_pp_up.wav
lokey=37
hikey=38
hivel=15
seq_length=2
seq_position=2
pitch_keycenter=38
amp_velcurve_15=1

<region>
sample=arco\arco_d2_p_down.wav
lokey=37
hikey=38
lovel=16
hivel=59
seq_length=2
pitch_keycenter=38
amp_velcurve_59=1

<region>
sample=arco\arco_d2_p_up.wav
lokey=37
hikey=38
lovel=16
hivel=59
seq_length=2
seq_position=2
pitch_keycenter=38
amp_velcurve_59=1

<region>
sample=arco\arco_d2_mf_down.wav
lokey=37
hikey=38
lovel=60
hivel=102
seq_length=2
pitch_keycenter=38
amp_velcurve_102=1

<region>
sample=arco\arco_d2_mf_up.wav
lokey=37
hikey=38
lovel=60
hivel=102
seq_length=2
seq_position=2
pitch_keycenter=38
amp_velcurve_102=1

<region>
sample=arco\arco_d2_f_down.wav
lokey=37
hikey=38
lovel=103
hivel=124
seq_length=2
pitch_keycenter=38
amp_velcurve_124=1

<region>
sample=arco\arco_d2_f_up.wav
lokey=37
hikey=38
lovel=103
hivel=124
seq_length=2
seq_position=2
pitch_keycenter=38
amp_velcurve_124=1

<region>
sample=arco\arco_d2_ff_down.wav
lokey=37
hikey=38
lovel=125
seq_length=2
pitch_keycenter=38

<region>
sample=arco\arco_d2_ff_up.wav
lokey=37
hikey=38
lovel=125
seq_length=2
seq_position=2
pitch_keycenter=38

<region>
sample=arco\arco_f2_pp_down.wav
lokey=39
hikey=41
hivel=15
seq_length=2
pitch_keycenter=41
amp_velcurve_15=1

<region>
sample=arco\arco_f2_pp_up.wav
lokey=39
hikey=41
hivel=15
seq_length=2
seq_position=2
pitch_keycenter=41
amp_velcurve_15=1

<region>
sample=arco\arco_f2_p_down.wav
lokey=39
hikey=41
lovel=16
hivel=59
seq_length=2
pitch_keycenter=41
amp_velcurve_59=1

<region>
sample=arco\arco_f2_p_up.wav
lokey=39
hikey=41
lovel=16
hivel=59
seq_length=2
seq_position=2
pitch_keycenter=41
amp_velcurve_59=1

<region>
sample=arco\arco_f2_mf_down.wav
lokey=39
hikey=41
lovel=60
hivel=102
seq_length=2
pitch_keycenter=41
amp_velcurve_102=1

<region>
sample=arco\arco_f2_mf_up.wav
lokey=39
hikey=41
lovel=60
hivel=102
seq_length=2
seq_position=2
pitch_keycenter=41
amp_velcurve_102=1

<region>
sample=arco\arco_f2_f_down.wav
lokey=39
hikey=41
lovel=103
hivel=124
seq_length=2
pitch_keycenter=41
amp_velcurve_124=1

<region>
sample=arco\arco_f2_f_up.wav
lokey=39
hikey=41
lovel=103
hivel=124
seq_length=2
seq_position=2
pitch_keycenter=41
amp_velcurve_124=1

<region>
sample=arco\arco_f2_ff_down.wav
lokey=39
hikey=41
lovel=125
seq_length=2
pitch_keycenter=41

<region>
sample=arco\arco_f2_ff_up.wav
lokey=39
hikey=41
lovel=125
seq_length=2
seq_position=2
pitch_keycenter=41

<region>
sample=arco\arco_a2_pp_down.wav
lokey=42
hikey=45
hivel=15
seq_length=2
pitch_keycenter=45
amp_velcurve_15=1

<region>
sample=arco\arco_a2_pp_up.wav
lokey=42
hikey=45
hivel=15
seq_length=2
seq_position=2
pitch_keycenter=45
amp_velcurve_15=1

<region>
sample=arco\arco_a2_p_down.wav
lokey=42
hikey=45
lovel=16
hivel=59
seq_length=2
pitch_keycenter=45
amp_velcurve_59=1

<region>
sample=arco\arco_a2_p_up.wav
lokey=42
hikey=45
lovel=16
hivel=59
seq_length=2
seq_position=2
pitch_keycenter=45
amp_velcurve_59=1

<region>
sample=arco\arco_a2_mf_down.wav
lokey=42
hikey=45
lovel=60
hivel=102
seq_length=2
pitch_keycenter=45
amp_velcurve_102=1

<region>
sample=arco\arco_a2_mf_up.wav
lokey=42
hikey=45
lovel=60
hivel=102
seq_length=2
seq_position=2
pitch_keycenter=45
amp_velcurve_102=1

<region>
sample=arco\arco_a2_f_down.wav
lokey=42
hikey=45
lovel=103
hivel=124
seq_length=2
pitch_keycenter=45
amp_velcurve_124=1

<region>
sample=arco\arco_a2_f_up.wav
lokey=42
hikey=45
lovel=103
hivel=124
seq_length=2
seq_position=2
pitch_keycenter=45
amp_velcurve_124=1

<region>
sample=arco\arco_a2_ff_down.wav
lokey=42
hikey=45
lovel=125
seq_length=2
pitch_keycenter=45

<region>
sample=arco\arco_a2_ff_up.wav
lokey=42
hikey=45
lovel=125
seq_length=2
seq_position=2
pitch_keycenter=45

<region>
sample=arco\arco_c3_pp_down.wav
lokey=46
hikey=48
hivel=15
seq_length=2
pitch_keycenter=48
amp_velcurve_15=1

<region>
sample=arco\arco_c3_pp_up.wav
lokey=46
hikey=48
hivel=15
seq_length=2
seq_position=2
pitch_keycenter=48
amp_velcurve_15=1

<region>
sample=arco\arco_c3_p_down.wav
lokey=46
hikey=48
lovel=16
hivel=59
seq_length=2
pitch_keycenter=48
amp_velcurve_59=1

<region>
sample=arco\arco_c3_p_up.wav
lokey=46
hikey=48
lovel=16
hivel=59
seq_length=2
seq_position=2
pitch_keycenter=48
amp_velcurve_59=1

<region>
sample=arco\arco_c3_mf_down.wav
lokey=46
hikey=48
lovel=60
hivel=102
seq_length=2
pitch_keycenter=48
amp_velcurve_102=1

<region>
sample=arco\arco_c3_mf_up.wav
lokey=46
hikey=48
lovel=60
hivel=102
seq_length=2
seq_position=2
pitch_keycenter=48
amp_velcurve_102=1

<region>
sample=arco\arco_c3_f_down.wav
lokey=46
hikey=48
lovel=103
hivel=124
seq_length=2
pitch_keycenter=48
amp_velcurve_124=1

<region>
sample=arco\arco_c3_f_up.wav
lokey=46
hikey=48
lovel=103
hivel=124
seq_length=2
seq_position=2
pitch_keycenter=48
amp_velcurve_124=1

<region>
sample=arco\arco_c3_ff_down.wav
lokey=46
hikey=48
lovel=125
seq_length=2
pitch_keycenter=48

<region>
sample=arco\arco_c3_ff_up.wav
lokey=46
hikey=48
lovel=125
seq_length=2
seq_position=2
pitch_keycenter=48

<region>
sample=arco\arco_e3_pp_down.wav
lokey=49
hikey=52
hivel=15
seq_length=2
pitch_keycenter=52
amp_velcurve_15=1

<region>
sample=arco\arco_e3_pp_up.wav
lokey=49
hikey=52
hivel=15
seq_length=2
seq_position=2
pitch_keycenter=52
amp_velcurve_15=1

<region>
sample=arco\arco_e3_p_down.wav
lokey=49
hikey=52
lovel=16
hivel=59
seq_length=2
pitch_keycenter=52
amp_velcurve_59=1

<region>
sample=arco\arco_e3_p_up.wav
lokey=49
hikey=52
lovel=16
hivel=59
seq_length=2
seq_position=2
pitch_keycenter=52
amp_velcurve_59=1

<region>
sample=arco\arco_e3_mf_down.wav
lokey=49
hikey=52
lovel=60
hivel=102
seq_length=2
pitch_keycenter=52
amp_velcurve_102=1

<region>
sample=arco\arco_e3_mf_up.wav
lokey=49
hikey=52
lovel=60
hivel=102
seq_length=2
seq_position=2
pitch_keycenter=52
amp_velcurve_102=1

<region>
sample=arco\arco_e3_f_down.wav
lokey=49
hikey=52
lovel=103
hivel=124
seq_length=2
pitch_keycenter=52
amp_velcurve_124=1

<region>
sample=arco\arco_e3_f_up.wav
lokey=49
hikey=52
lovel=103
hivel=124
seq_length=2
seq_position=2
pitch_keycenter=52
amp_velcurve_124=1

<region>
sample=arco\arco_e3_ff_down.wav
lokey=49
hikey=52
lovel=125
seq_length=2
pitch_keycenter=52

<region>
sample=arco\arco_e3_ff_up.wav
lokey=49
hikey=52
lovel=125
seq_length=2
seq_position=2
pitch_keycenter=52

<region>
sample=arco\arco_g3_pp_up.wav
lokey=53
hikey=55
hivel=15
seq_length=2
pitch_keycenter=55
amp_velcurve_15=1

<region>
sample=arco\arco_g3_pp_down.wav
lokey=53
hikey=55
hivel=15
seq_length=2
seq_position=2
pitch_keycenter=55
amp_velcurve_15=1

<region>
sample=arco\arco_g3_p_down.wav
lokey=53
hikey=55
lovel=16
hivel=59
seq_length=2
pitch_keycenter=55
amp_velcurve_59=1

<region>
sample=arco\arco_g3_p_up.wav
lokey=53
hikey=55
lovel=16
hivel=59
seq_length=2
seq_position=2
pitch_keycenter=55
amp_velcurve_59=1

<region>
sample=arco\arco_g3_mf_down.wav
lokey=53
hikey=55
lovel=60
hivel=102
seq_length=2
pitch_keycenter=55
amp_velcurve_102=1

<region>
sample=arco\arco_g3_mf_up.wav
lokey=53
hikey=55
lovel=60
hivel=102
seq_length=2
seq_position=2
pitch_keycenter=55
amp_velcurve_102=1

<region>
sample=arco\arco_g3_f_down.wav
lokey=53
hikey=55
lovel=103
hivel=124
seq_length=2
pitch_keycenter=55
amp_velcurve_124=1

<region>
sample=arco\arco_g3_f_up.wav
lokey=53
hikey=55
lovel=103
hivel=124
seq_length=2
seq_position=2
pitch_keycenter=55
amp_velcurve_124=1

<region>
sample=arco\arco_g3_ff_down.wav
lokey=53
hikey=55
lovel=125
seq_length=2
pitch_keycenter=55

<region>
sample=arco\arco_g3_ff_up.wav
lokey=53
hikey=55
lovel=125
seq_length=2
seq_position=2
pitch_keycenter=55

<region>
sample=arco\arco_a3_pp_down.wav
lokey=56
hikey=57
hivel=15
seq_length=2
pitch_keycenter=57
amp_velcurve_15=1

<region>
sample=arco\arco_a3_pp_up.wav
lokey=56
hikey=57
hivel=15
seq_length=2
seq_position=2
pitch_keycenter=57
amp_velcurve_15=1

<region>
sample=arco\arco_a3_p_down.wav
lokey=56
hikey=57
lovel=16
hivel=59
seq_length=2
pitch_keycenter=57
amp_velcurve_59=1

<region>
sample=arco\arco_a3_p_up.wav
lokey=56
hikey=57
lovel=16
hivel=59
seq_length=2
seq_position=2
pitch_keycenter=57
amp_velcurve_59=1

<region>
sample=arco\arco_a3_mf_down.wav
lokey=56
hikey=57
lovel=60
hivel=102
seq_length=2
pitch_keycenter=57
amp_velcurve_102=1

<region>
sample=arco\arco_a3_mf_up.wav
lokey=56
hikey=57
lovel=60
hivel=102
seq_length=2
seq_position=2
pitch_keycenter=57
amp_velcurve_102=1

<region>
sample=arco\arco_a3_f_down.wav
lokey=56
hikey=57
lovel=103
hivel=124
seq_length=2
pitch_keycenter=57
amp_velcurve_124=1

<region>
sample=arco\arco_a3_f_up.wav
lokey=56
hikey=57
lovel=103
hivel=124
seq_length=2
seq_position=2
pitch_keycenter=57
amp_velcurve_124=1

<region>
sample=arco\arco_a3_ff_down.wav
lokey=56
hikey=57
lovel=125
seq_length=2
pitch_keycenter=57

<region>
sample=arco\arco_a3_ff_up.wav
lokey=56
hikey=57
lovel=125
seq_length=2
seq_position=2
pitch_keycenter=57

<region>
sample=arco\arco_c4_pp_down.wav
lokey=58
hikey=60
hivel=15
seq_length=2
amp_velcurve_15=1

<region>
sample=arco\arco_c4_pp_up.wav
lokey=58
hikey=60
hivel=15
seq_length=2
seq_position=2
amp_velcurve_15=1

<region>
sample=arco\arco_c4_p_down.wav
lokey=58
hikey=60
lovel=16
hivel=59
seq_length=2
amp_velcurve_59=1

<region>
sample=arco\arco_c4_p_up.wav
lokey=58
hikey=60
lovel=16
hivel=59
seq_length=2
seq_position=2
amp_velcurve_59=1

<region>
sample=arco\arco_c4_mf_down.wav
lokey=58
hikey=60
lovel=60
hivel=102
seq_length=2
amp_velcurve_102=1

<region>
sample=arco\arco_c4_mf_up.wav
lokey=58
hikey=60
lovel=60
hivel=102
seq_length=2
seq_position=2
amp_velcurve_102=1

<region>
sample=arco\arco_c4_f_down.wav
lokey=58
hikey=60
lovel=103
hivel=124
seq_length=2
amp_velcurve_124=1

<region>
sample=arco\arco_c4_f_up.wav
lokey=58
hikey=60
lovel=103
hivel=124
seq_length=2
seq_position=2
amp_velcurve_124=1

<region>
sample=arco\arco_c4_ff_down.wav
lokey=58
hikey=60
lovel=125
seq_length=2

<region>
sample=arco\arco_c4_ff_up.wav
lokey=58
hikey=60
lovel=125
seq_length=2
seq_position=2

<region>
sample=arco\arco_e4_pp_down.wav
lokey=61
hikey=64
hivel=15
seq_length=2
pitch_keycenter=64
amp_velcurve_15=1

<region>
sample=arco\arco_e4_pp_up.wav
lokey=61
hikey=64
hivel=15
seq_length=2
seq_position=2
pitch_keycenter=64
amp_velcurve_15=1

<region>
sample=arco\arco_e4_p_down.wav
lokey=61
hikey=64
lovel=16
hivel=59
seq_length=2
pitch_keycenter=64
amp_velcurve_59=1

<region>
sample=arco\arco_e4_p_up.wav
lokey=61
hikey=64
lovel=16
hivel=59
seq_length=2
seq_position=2
pitch_keycenter=64
amp_velcurve_59=1

<region>
sample=arco\arco_e4_mf_down.wav
lokey=61
hikey=64
lovel=60
hivel=102
seq_length=2
pitch_keycenter=64
amp_velcurve_102=1

<region>
sample=arco\arco_e4_mf_up.wav
lokey=61
hikey=64
lovel=60
hivel=102
seq_length=2
seq_position=2
pitch_keycenter=64
amp_velcurve_102=1

<region>
sample=arco\arco_e4_f_down.wav
lokey=61
hikey=64
lovel=103
hivel=124
seq_length=2
pitch_keycenter=64
amp_velcurve_124=1

<region>
sample=arco\arco_e4_f_up.wav
lokey=61
hikey=64
lovel=103
hivel=124
seq_length=2
seq_position=2
pitch_keycenter=64
amp_velcurve_124=1

<region>
sample=arco\arco_e4_ff_down.wav
lokey=61
hikey=64
lovel=125
seq_length=2
pitch_keycenter=64

<region>
sample=arco\arco_e4_ff_up.wav
lokey=61
hikey=64
lovel=125
seq_length=2
seq_position=2
pitch_keycenter=64

<region>
sample=arco\arco_a4_pp_down.wav
lokey=65
hikey=69
hivel=15
seq_length=2
pitch_keycenter=69
amp_velcurve_15=1

<region>
sample=arco\arco_a4_pp_up.wav
lokey=65
hikey=69
hivel=15
seq_length=2
pitch_keycenter=69
amp_velcurve_15=1

<region>
sample=arco\arco_a4_p_down.wav
lokey=65
hikey=69
lovel=16
hivel=59
seq_length=2
pitch_keycenter=69
amp_velcurve_59=1

<region>
sample=arco\arco_a4_p_up.wav
lokey=65
hikey=69
lovel=16
hivel=59
seq_length=2
seq_position=2
pitch_keycenter=69
amp_velcurve_59=1

<region>
sample=arco\arco_a4_mf_down.wav
lokey=65
hikey=69
lovel=60
hivel=102
seq_length=2
pitch_keycenter=69
amp_velcurve_102=1

<region>
sample=arco\arco_a4_mf_up.wav
lokey=65
hikey=69
lovel=60
hivel=102
seq_length=2
seq_position=2
pitch_keycenter=69
amp_velcurve_102=1

<region>
sample=arco\arco_a4_f_down.wav
lokey=65
hikey=69
lovel=103
hivel=124
seq_length=2
pitch_keycenter=69
amp_velcurve_124=1

<region>
sample=arco\arco_a4_f_up.wav
lokey=65
hikey=69
lovel=103
hivel=124
seq_length=2
seq_position=2
pitch_keycenter=69
amp_velcurve_124=1

<region>
sample=arco\arco_a4_ff_down.wav
lokey=65
hikey=69
lovel=125
seq_length=2
pitch_keycenter=69

<region>
sample=arco\arco_a4_ff_up.wav
lokey=65
hikey=69
lovel=125
seq_length=2
seq_position=2
pitch_keycenter=69

//========================
<group>
sw_lokey=70
sw_hikey=72
sw_last=72
bend_up=2400
bend_down=-3600
ampeg_release=0.600

<region>
sample=arco\noises\arco_noise_creak_1.wav
lokey=24
hikey=24
seq_length=5
pitch_keycenter=24

<region>
sample=arco\noises\arco_noise_creak_2.wav
lokey=24
hikey=24
seq_length=5
seq_position=2
pitch_keycenter=24

<region>
sample=arco\noises\arco_noise_creak_3.wav
lokey=24
hikey=24
seq_length=5
seq_position=3
pitch_keycenter=24

<region>
sample=arco\noises\arco_noise_creak_4.wav
lokey=24
hikey=24
seq_length=5
seq_position=4
pitch_keycenter=24

<region>
sample=arco\noises\arco_noise_creak_5.wav
lokey=24
hikey=24
seq_length=5
seq_position=5
pitch_keycenter=24

<region>
sample=arco\noises\arco_noise_creak_extra_long.wav
lokey=26
hikey=26
pitch_keycenter=26

<region>
sample=arco\noises\arco_noise_creak_long.wav
lokey=25
hikey=25
pitch_keycenter=25

<region>
sample=arco\noises\arco_noise_extra_high_moaning_1.wav
lokey=29
hikey=29
seq_length=2
pitch_keycenter=29

<region>
sample=arco\noises\arco_noise_extra_high_moaning_2.wav
lokey=29
hikey=29
seq_length=2
seq_position=2
pitch_keycenter=29

<region>
sample=arco\noises\arco_noise_extra_high_screechy_extra_long.wav
lokey=28
hikey=28
pitch_keycenter=28

<region>
sample=arco\noises\arco_noise_extra_high_screechy_long.wav
lokey=27
hikey=27
pitch_keycenter=27

<region>
sample=arco\noises\arco_noise_harmonics_1.wav
lokey=45
hikey=45
seq_length=4
pitch_keycenter=45

<region>
sample=arco\noises\arco_noise_harmonics_2.wav
lokey=45
hikey=45
seq_length=4
seq_position=2
pitch_keycenter=45

<region>
sample=arco\noises\arco_noise_harmonics_3.wav
lokey=45
hikey=45
seq_length=4
seq_position=3
pitch_keycenter=45

<region>
sample=arco\noises\arco_noise_harmonics_4.wav
lokey=45
hikey=45
seq_length=4
seq_position=4
pitch_keycenter=45

<region>
sample=arco\noises\arco_noise_harmonics_clean.wav
lokey=46
hikey=46
pitch_keycenter=46

<region>
sample=arco\noises\arco_noise_harmonics_messy.wav
lokey=47
hikey=47
pitch_keycenter=47

<region>
sample=arco\noises\arco_noise_high_logn.wav
lokey=33
hikey=33
pitch_keycenter=33

<region>
sample=arco\noises\arco_noise_high_medium_1.wav
lokey=31
hikey=31
seq_length=4
pitch_keycenter=31

<region>
sample=arco\noises\arco_noise_high_medium_2.wav
lokey=31
hikey=31
seq_length=4
seq_position=2
pitch_keycenter=31

<region>
sample=arco\noises\arco_noise_high_medium_3.wav
lokey=31
hikey=31
seq_length=4
seq_position=3
pitch_keycenter=31

<region>
sample=arco\noises\arco_noise_high_medium_4.wav
lokey=31
hikey=31
seq_length=4
seq_position=4
pitch_keycenter=31

<region>
sample=arco\noises\arco_noise_high_moaning_long.wav
lokey=32
hikey=32
pitch_keycenter=31

<region>
sample=arco\noises\arco_noise_high_short_1.wav
lokey=30
hikey=30
seq_length=4
pitch_keycenter=30

<region>
sample=arco\noises\arco_noise_high_short_2.wav
lokey=30
hikey=30
seq_length=4
seq_position=2
pitch_keycenter=30

<region>
sample=arco\noises\arco_noise_high_short_3.wav
lokey=30
hikey=30
seq_length=4
seq_position=3
pitch_keycenter=30

<region>
sample=arco\noises\arco_noise_high_short_4.wav
lokey=30
hikey=30
seq_length=4
seq_position=4
pitch_keycenter=30

<region>
sample=arco\noises\arco_noise_jumpy_1.wav
lokey=42
hikey=42
seq_length=3
pitch_keycenter=42

<region>
sample=arco\noises\arco_noise_jumpy_2.wav
lokey=42
hikey=42
seq_length=3
seq_position=2
pitch_keycenter=42

<region>
sample=arco\noises\arco_noise_jumpy_3.wav
lokey=42
hikey=42
seq_length=3
seq_position=3
pitch_keycenter=42

<region>
sample=arco\noises\arco_noise_jumpy_4.wav
lokey=43
hikey=43
seq_length=4
pitch_keycenter=43

<region>
sample=arco\noises\arco_noise_jumpy_5.wav
lokey=43
hikey=43
seq_length=4
seq_position=2
pitch_keycenter=43

<region>
sample=arco\noises\arco_noise_jumpy_6.wav
lokey=43
hikey=43
seq_length=4
seq_position=3
pitch_keycenter=43

<region>
sample=arco\noises\arco_noise_jumpy_7.wav
lokey=43
hikey=43
seq_length=4
seq_position=4
pitch_keycenter=43

<region>
sample=arco\noises\arco_noise_jumpy_high_1.wav
lokey=44
hikey=44
seq_length=2
pitch_keycenter=44

<region>
sample=arco\noises\arco_noise_jumpy_high_2.wav
lokey=44
hikey=44
seq_length=2
seq_position=2
pitch_keycenter=44

<region>
sample=arco\noises\arco_noise_jumpy_short_1.wav
lokey=41
hikey=41
seq_length=2
pitch_keycenter=41

<region>
sample=arco\noises\arco_noise_jumpy_short_2.wav
lokey=41
hikey=41
seq_length=2
seq_position=2
pitch_keycenter=41

<region>
sample=arco\noises\arco_noise_moan_1.wav
lokey=34
hikey=34
seq_length=4
pitch_keycenter=34

<region>
sample=arco\noises\arco_noise_moan_2.wav
lokey=34
hikey=34
seq_length=4
seq_position=2
pitch_keycenter=34

<region>
sample=arco\noises\arco_noise_moan_3.wav
lokey=34
hikey=34
seq_length=4
seq_position=3
pitch_keycenter=34

<region>
sample=arco\noises\arco_noise_moan_4.wav
lokey=34
hikey=34
seq_length=4
seq_position=4
pitch_keycenter=34

<region>
sample=arco\noises\arco_noise_moan_long.wav
lokey=35
hikey=35
pitch_keycenter=35

<region>
sample=arco\noises\arco_noise_moan_long_low_to_high.wav
lokey=36
hikey=36
pitch_keycenter=36

<region>
sample=arco\noises\arco_noise_moan_long_piglike.wav
lokey=38
hikey=38
seq_length=3
pitch_keycenter=38

<region>
sample=arco\noises\arco_noise_moan_pig_long_1.wav
lokey=38
hikey=38
seq_length=3
seq_position=2
pitch_keycenter=38

<region>
sample=arco\noises\arco_noise_moan_pig_long_2.wav
lokey=38
hikey=38
seq_length=3
seq_position=3
pitch_keycenter=38

<region>
sample=arco\noises\arco_noise_moan_pig_short_1.wav
lokey=37
hikey=37
seq_length=2
pitch_keycenter=37

<region>
sample=arco\noises\arco_noise_moan_pig_short_2.wav
lokey=37
hikey=37
seq_length=2
seq_position=2
pitch_keycenter=37

<region>
sample=arco\noises\arco_noise_screech_doglike.wav
lokey=39
hikey=39
pitch_keycenter=39

<region>
sample=arco\noises\arco_noise_zipperlike.wav
lokey=40
hikey=40
pitch_keycenter=40

//========================
<group>
sw_lokey=70
sw_hikey=72
sw_last=72
bend_up=1200
bend_down=-2400
ampeg_release=0.300

<region>
sample=pizz\noises\pizz_noise_body_slap_1.wav
lokey=60
hikey=60
seq_length=5

<region>
sample=pizz\noises\pizz_noise_body_slap_2.wav
lokey=60
hikey=60
seq_length=5
seq_position=2

<region>
sample=pizz\noises\pizz_noise_body_slap_3.wav
lokey=60
hikey=60
seq_length=5
seq_position=3

<region>
sample=pizz\noises\pizz_noise_body_slap_4.wav
lokey=60
hikey=60
seq_length=5
seq_position=4

<region>
sample=pizz\noises\pizz_noise_body_slap_5.wav
lokey=60
hikey=60
seq_length=5
seq_position=5

<region>
sample=pizz\noises\pizz_noise_body_slap_high_1.wav
lokey=61
hikey=61
seq_length=4
pitch_keycenter=61

<region>
sample=pizz\noises\pizz_noise_body_slap_high_2.wav
lokey=61
hikey=61
seq_length=4
seq_position=2
pitch_keycenter=61

<region>
sample=pizz\noises\pizz_noise_body_slap_high_3.wav
lokey=61
hikey=61
seq_length=4
seq_position=3
pitch_keycenter=61

<region>
sample=pizz\noises\pizz_noise_body_slap_high_4.wav
lokey=61
hikey=61
seq_length=4
seq_position=4
pitch_keycenter=61

<region>
sample=pizz\noises\pizz_noise_body_slap_low_1.wav
lokey=62
hikey=62
seq_length=2
pitch_keycenter=62

<region>
sample=pizz\noises\pizz_noise_body_slap_low_2.wav
lokey=62
hikey=62
seq_length=2
seq_position=2
pitch_keycenter=62

<region>
sample=pizz\noises\pizz_noise_click.wav
lokey=56
hikey=56
seq_length=3
pitch_keycenter=56

<region>
sample=pizz\noises\pizz_noise_click_2.wav
lokey=56
hikey=56
seq_length=3
seq_position=2
pitch_keycenter=56

<region>
sample=pizz\noises\pizz_noise_click_3.wav
lokey=56
hikey=56
seq_length=3
seq_position=3
pitch_keycenter=56

<region>
sample=pizz\noises\pizz_noise_high_thump.wav
lokey=63
hikey=63
seq_length=2
pitch_keycenter=63

<region>
sample=pizz\noises\pizz_noise_high_thump_2.wav
lokey=63
hikey=63
seq_length=2
seq_position=2
pitch_keycenter=63

<region>
sample=pizz\noises\pizz_noise_low_thump_1.wav
lokey=64
hikey=64
seq_length=4
pitch_keycenter=64

<region>
sample=pizz\noises\pizz_noise_low_thump_2.wav
lokey=64
hikey=64
seq_length=4
seq_position=2
pitch_keycenter=64

<region>
sample=pizz\noises\pizz_noise_low_thump_3.wav
lokey=64
hikey=64
seq_length=4
seq_position=3
pitch_keycenter=64

<region>
sample=pizz\noises\pizz_noise_low_thump_4.wav
lokey=64
hikey=64
seq_length=4
seq_position=4
pitch_keycenter=64

<region>
sample=pizz\noises\pizz_noise_mute_d2.wav
lokey=50
hikey=50
seq_length=4
pitch_keycenter=50

<region>
sample=pizz\noises\pizz_noise_mute_g2.wav
lokey=49
hikey=49
seq_length=4
pitch_keycenter=49

<region>
sample=pizz\noises\pizz_noise_mute_a2.wav
lokey=51
hikey=51
seq_length=2
pitch_keycenter=51

<region>
sample=pizz\noises\pizz_noise_mute_c3.wav
lokey=48
hikey=48
seq_length=3
seq_position=3
pitch_keycenter=48

<region>
sample=pizz\noises\pizz_noise_mute_d3.wav
lokey=50
hikey=50
seq_length=4
seq_position=2
pitch_keycenter=50

<region>
sample=pizz\noises\pizz_noise_mute_g3.wav
lokey=49
hikey=49
seq_length=4
seq_position=2
pitch_keycenter=49

<region>
sample=pizz\noises\pizz_noise_mute_d4.wav
lokey=50
hikey=50
seq_length=4
seq_position=3
pitch_keycenter=50

<region>
sample=pizz\noises\pizz_noise_mute_g4.wav
lokey=49
hikey=49
seq_length=4
seq_position=3
pitch_keycenter=49

<region>
sample=pizz\noises\pizz_noise_mute_a.wav
lokey=51
hikey=51
seq_length=2
seq_position=2
pitch_keycenter=51

<region>
sample=pizz\noises\pizz_noise_mute_c.wav
lokey=48
hikey=48
seq_length=3
pitch_keycenter=48

<region>
sample=pizz\noises\pizz_noise_mute_c_2.wav
lokey=48
hikey=48
seq_length=3
seq_position=2
pitch_keycenter=48

<region>
sample=pizz\noises\pizz_noise_mute_d.wav
lokey=50
hikey=50
seq_length=4
seq_position=4
pitch_keycenter=50

<region>
sample=pizz\noises\pizz_noise_mute_g.wav
lokey=49
hikey=49
seq_length=4
seq_position=4
pitch_keycenter=49

<region>
sample=pizz\noises\pizz_noise_set_bass_on_floor.wav
lokey=65
hikey=65
pitch_keycenter=65

<region>
sample=pizz\noises\pizz_noise_slap_1.wav
lokey=57
hikey=57
seq_length=3
pitch_keycenter=57

<region>
sample=pizz\noises\pizz_noise_slap_2.wav
lokey=57
hikey=57
seq_length=3
seq_position=2
pitch_keycenter=57

<region>
sample=pizz\noises\pizz_noise_slap_3.wav
lokey=57
hikey=57
seq_length=3
seq_position=3
pitch_keycenter=57

<region>
sample=pizz\noises\pizz_noise_slap_knuckle_1.wav
lokey=59
hikey=59
seq_length=4
pitch_keycenter=59

<region>
sample=pizz\noises\pizz_noise_slap_knuckle_2.wav
lokey=59
hikey=59
seq_length=4
seq_position=2
pitch_keycenter=59

<region>
sample=pizz\noises\pizz_noise_slap_knuckle_3.wav
lokey=59
hikey=59
seq_length=4
seq_position=3
pitch_keycenter=59

<region>
sample=pizz\noises\pizz_noise_slap_knuckle_4.wav
lokey=59
hikey=59
seq_length=4
seq_position=4
pitch_keycenter=59

<region>
sample=pizz\noises\pizz_noise_slap_resp_1.wav
lokey=58
hikey=58
seq_length=4
pitch_keycenter=58

<region>
sample=pizz\noises\pizz_noise_slap_resp_2.wav
lokey=58
hikey=58
seq_length=4
seq_position=2
pitch_keycenter=58

<region>
sample=pizz\noises\pizz_noise_slap_resp_3.wav
lokey=58
hikey=58
seq_length=4
seq_position=3
pitch_keycenter=58

<region>
sample=pizz\noises\pizz_noise_slap_resp_4.wav
lokey=58
hikey=58
seq_length=4
seq_position=4
pitch_keycenter=58

<region>
sample=pizz\noises\pizz_noise_strum_1.wav
lokey=52
hikey=52
seq_length=2
pitch_keycenter=52

<region>
sample=pizz\noises\pizz_noise_strum_2.wav
lokey=52
hikey=52
seq_length=2
seq_position=2
pitch_keycenter=52

<region>
sample=pizz\noises\pizz_noise_strum_long_1.wav
lokey=53
hikey=53
seq_length=5
pitch_keycenter=53

<region>
sample=pizz\noises\pizz_noise_strum_long_2.wav
lokey=53
hikey=53
seq_length=5
seq_position=2
pitch_keycenter=53

<region>
sample=pizz\noises\pizz_noise_strum_long_3.wav
lokey=53
hikey=53
seq_length=5
seq_position=3
pitch_keycenter=53

<region>
sample=pizz\noises\pizz_noise_strum_long_4.wav
lokey=53
hikey=53
seq_length=5
seq_position=4
pitch_keycenter=53

<region>
sample=pizz\noises\pizz_noise_strum_long_5.wav
lokey=53
hikey=53
seq_length=5
seq_position=5
pitch_keycenter=53

<region>
sample=pizz\noises\pizz_noise_strum_long_extra.wav
lokey=55
hikey=55
pitch_keycenter=55

<region>
sample=pizz\noises\pizz_noise_strum_loud_1.wav
lokey=54
hikey=54
seq_length=2
pitch_keycenter=54

<region>
sample=pizz\noises\pizz_noise_strum_loud_2.wav
lokey=54
hikey=54
seq_length=2
seq_position=2
pitch_keycenter=54

//========================
<group>
sw_lokey=70
sw_hikey=72
sw_last=71
group=1
off_by=1
bend_up=1200
bend_down=-1200
ampeg_release=0.400
amp_velcurve_54=1

<region>
sample=pizz\pizz_c1_pa.wav
lokey=12
hikey=24
hivel=74
seq_length=4
pitch_keycenter=24

<region>
sample=pizz\pizz_c1_pb.wav
lokey=12
hikey=24
hivel=74
seq_length=4
seq_position=2
pitch_keycenter=24

<region>
sample=pizz\pizz_c1_pc.wav
lokey=12
hikey=24
hivel=74
seq_length=4
seq_position=3
pitch_keycenter=24

<region>
sample=pizz\pizz_c1_pd.wav
lokey=12
hikey=24
hivel=74
seq_length=4
seq_position=4
pitch_keycenter=24

//========================
<group>
sw_lokey=70
sw_hikey=72
sw_last=71
group=1
off_by=1
bend_up=1200
bend_down=-1200
ampeg_release=0.400

<region>
sample=pizz\pizz_c1_ma.wav
lokey=12
hikey=24
lovel=75
hivel=120
seq_length=4
pitch_keycenter=24
amp_velcurve_120=1

<region>
sample=pizz\pizz_c1_mb.wav
lokey=12
hikey=24
lovel=75
hivel=120
seq_length=4
seq_position=2
pitch_keycenter=24
amp_velcurve_120=1

<region>
sample=pizz\pizz_c1_mc.wav
lokey=12
hikey=24
lovel=75
hivel=120
seq_length=4
seq_position=3
pitch_keycenter=24
amp_velcurve_120=1

<region>
sample=pizz\pizz_c1_md.wav
lokey=12
hikey=24
lovel=75
hivel=120
seq_length=4
seq_position=4
pitch_keycenter=24
amp_velcurve_120=1

<region>
sample=pizz\pizz_c1_fa.wav
lokey=12
hikey=26
lovel=121
seq_length=4
pitch_keycenter=24

<region>
sample=pizz\pizz_c1_fb.wav
lokey=12
hikey=26
lovel=121
seq_length=4
seq_position=2
pitch_keycenter=24

<region>
sample=pizz\pizz_c1_fc.wav
lokey=12
hikey=26
lovel=121
seq_length=4
seq_position=3
pitch_keycenter=24

<region>
sample=pizz\pizz_c1_fd.wav
lokey=12
hikey=26
lovel=121
seq_length=4
seq_position=4
pitch_keycenter=24

//========================
<group>
sw_lokey=70
sw_hikey=72
sw_last=71
group=1
off_by=1
bend_up=1200
bend_down=-1200
ampeg_release=0.400
amp_velcurve_54=1

<region>
sample=pizz\pizz_eb1_ma.wav
lokey=25
hikey=27
hivel=74
seq_length=4
pitch_keycenter=27

<region>
sample=pizz\pizz_eb1_mb.wav
lokey=25
hikey=27
hivel=74
seq_length=4
seq_position=2
pitch_keycenter=27

<region>
sample=pizz\pizz_eb1_mc.wav
lokey=25
hikey=27
hivel=74
seq_length=4
seq_position=3
pitch_keycenter=27

<region>
sample=pizz\pizz_eb1_md.wav
lokey=25
hikey=27
hivel=74
seq_length=4
seq_position=4
pitch_keycenter=27

//========================
<group>
sw_lokey=70
sw_hikey=72
sw_last=71
group=1
off_by=1
bend_up=1200
bend_down=-1200
ampeg_release=0.400

<region>
sample=pizz\pizz_eb1_fa.wav
lokey=25
hikey=27
lovel=75
hivel=120
seq_length=4
pitch_keycenter=27
amp_velcurve_120=1

<region>
sample=pizz\pizz_eb1_fb.wav
lokey=25
hikey=27
lovel=75
hivel=120
seq_length=4
seq_position=2
pitch_keycenter=27
amp_velcurve_120=1

<region>
sample=pizz\pizz_eb1_fc.wav
lokey=25
hikey=27
lovel=75
hivel=120
seq_length=4
seq_position=3
pitch_keycenter=27
amp_velcurve_120=1

<region>
sample=pizz\pizz_eb1_fd.wav
lokey=25
hikey=27
lovel=75
hivel=120
seq_length=4
seq_position=4
pitch_keycenter=27
amp_velcurve_120=1

<region>
sample=pizz\pizz_g1_fa.wav
lokey=27
hikey=33
lovel=121
seq_length=4
pitch_keycenter=31

<region>
sample=pizz\pizz_g1_fb.wav
lokey=27
hikey=33
lovel=121
seq_length=4
seq_position=2
pitch_keycenter=31

<region>
sample=pizz\pizz_g1_fc.wav
lokey=27
hikey=33
lovel=121
seq_length=4
seq_position=3
pitch_keycenter=31

<region>
sample=pizz\pizz_g1_fd.wav
lokey=27
hikey=33
lovel=121
seq_length=4
seq_position=4
pitch_keycenter=31

//========================
<group>
sw_lokey=70
sw_hikey=72
sw_last=71
group=2
off_by=2
bend_up=1200
bend_down=-1200
ampeg_release=0.400
amp_velcurve_54=1

<region>
sample=pizz\pizz_g1_pa.wav
lokey=28
hikey=31
hivel=74
seq_length=4
pitch_keycenter=31

<region>
sample=pizz\pizz_g1_pb.wav
lokey=28
hikey=31
hivel=74
seq_length=4
seq_position=2
pitch_keycenter=31

<region>
sample=pizz\pizz_g1_pc.wav
lokey=28
hikey=31
hivel=74
seq_length=4
seq_position=3
pitch_keycenter=31

<region>
sample=pizz\pizz_g1_pd.wav
lokey=28
hikey=31
hivel=74
seq_length=4
seq_position=4
pitch_keycenter=31

//========================
<group>
sw_lokey=70
sw_hikey=72
sw_last=71
group=2
off_by=2
bend_up=1200
bend_down=-1200
ampeg_release=0.400

<region>
sample=pizz\pizz_g1_ma.wav
lokey=28
hikey=31
lovel=75
hivel=120
seq_length=4
pitch_keycenter=31
amp_velcurve_120=1

<region>
sample=pizz\pizz_g1_mb.wav
lokey=28
hikey=31
lovel=75
hivel=120
seq_length=4
seq_position=2
pitch_keycenter=31

<region>
sample=pizz\pizz_g1_mc.wav
lokey=28
hikey=31
lovel=75
hivel=120
seq_length=4
seq_position=3
pitch_keycenter=31

<region>
sample=pizz\pizz_g1_md.wav
lokey=28
hikey=31
lovel=75
hivel=120
seq_length=4
seq_position=4
pitch_keycenter=31
amp_velcurve_120=1

//========================
<group>
sw_lokey=70
sw_hikey=72
sw_last=71
group=2
off_by=2
bend_up=1200
bend_down=-1200
ampeg_release=0.400
amp_velcurve_54=1

<region>
sample=pizz\pizz_bb1_pa.wav
lokey=32
hikey=34
hivel=74
seq_length=4
pitch_keycenter=34

<region>
sample=pizz\pizz_bb1_pb.wav
lokey=32
hikey=34
hivel=74
seq_length=4
seq_position=2
pitch_keycenter=34

<region>
sample=pizz\pizz_bb1_pc.wav
lokey=32
hikey=34
hivel=74
seq_length=4
seq_position=3
pitch_keycenter=34

<region>
sample=pizz\pizz_bb1_pd.wav
lokey=32
hikey=34
hivel=74
seq_length=4
seq_position=4
pitch_keycenter=34

//========================
<group>
sw_lokey=70
sw_hikey=72
sw_last=71
group=2
off_by=2
bend_up=1200
bend_down=-1200
ampeg_release=0.400

<region>
sample=pizz\pizz_bb1_fa.wav
lokey=32
hikey=34
lovel=75
hivel=120
seq_length=4
pitch_keycenter=34
amp_velcurve_120=1

<region>
sample=pizz\pizz_bb1_fb.wav
lokey=32
hikey=34
lovel=75
hivel=120
seq_length=4
seq_position=2
pitch_keycenter=34
amp_velcurve_120=1

<region>
sample=pizz\pizz_bb1_fc.wav
lokey=32
hikey=34
lovel=75
hivel=120
seq_length=4
seq_position=3
pitch_keycenter=34
amp_velcurve_120=1

<region>
sample=pizz\pizz_bb1_fd.wav
lokey=32
hikey=34
lovel=75
hivel=120
seq_length=4
seq_position=4
pitch_keycenter=34
amp_velcurve_120=1

//========================
<group>
sw_lokey=70
sw_hikey=72
sw_last=71
group=3
off_by=3
bend_up=1200
bend_down=-1200
ampeg_release=0.400

<region>
sample=pizz\pizz_d2_fa.wav
lokey=34
hikey=38
lovel=121
seq_length=4
pitch_keycenter=38

<region>
sample=pizz\pizz_d2_fb.wav
lokey=34
hikey=38
lovel=121
seq_length=4
seq_position=2
pitch_keycenter=38

<region>
sample=pizz\pizz_d2_fc.wav
lokey=34
hikey=38
lovel=121
seq_length=4
seq_position=3
pitch_keycenter=38

<region>
sample=pizz\pizz_d2_fd.wav
lokey=34
hikey=38
lovel=121
seq_length=4
seq_position=4
pitch_keycenter=38

//========================
<group>
sw_lokey=70
sw_hikey=72
sw_last=71
group=3
off_by=3
bend_up=1200
bend_down=-1200
ampeg_release=0.400
amp_velcurve_54=1

<region>
sample=pizz\pizz_d2_pa.wav
lokey=35
hikey=38
hivel=74
seq_length=4
pitch_keycenter=38

<region>
sample=pizz\pizz_d2_pb.wav
lokey=35
hikey=38
hivel=74
seq_length=4
seq_position=2
pitch_keycenter=38

<region>
sample=pizz\pizz_d2_pc.wav
lokey=35
hikey=38
hivel=74
seq_length=4
seq_position=3
pitch_keycenter=38

<region>
sample=pizz\pizz_d2_pd.wav
lokey=35
hikey=38
hivel=74
seq_length=4
seq_position=4
pitch_keycenter=38

//========================
<group>
sw_lokey=70
sw_hikey=72
sw_last=71
group=3
off_by=3
bend_up=1200
bend_down=-1200
ampeg_release=0.400

<region>
sample=pizz\pizz_d2_ma.wav
lokey=35
hikey=38
lovel=75
hivel=120
seq_length=4
pitch_keycenter=38
amp_velcurve_120=1

<region>
sample=pizz\pizz_d2_mb.wav
lokey=35
hikey=38
lovel=75
hivel=120
seq_length=4
seq_position=2
pitch_keycenter=38
amp_velcurve_120=1

<region>
sample=pizz\pizz_d2_mc.wav
lokey=35
hikey=38
lovel=75
hivel=120
seq_length=4
seq_position=3
pitch_keycenter=38
amp_velcurve_120=1

<region>
sample=pizz\pizz_d2_md.wav
lokey=35
hikey=38
lovel=75
hivel=120
seq_length=4
seq_position=4
pitch_keycenter=38
amp_velcurve_120=1

//========================
<group>
sw_lokey=70
sw_hikey=72
sw_last=71
group=3
off_by=3
bend_up=1200
bend_down=-1200
ampeg_release=0.400
amp_velcurve_54=1

<region>
sample=pizz\pizz_f2_pa.wav
lokey=39
hikey=41
hivel=74
seq_length=4
pitch_keycenter=41

<region>
sample=pizz\pizz_f2_pb.wav
lokey=39
hikey=41
hivel=74
seq_length=4
seq_position=2
pitch_keycenter=41

<region>
sample=pizz\pizz_f2_pc.wav
lokey=39
hikey=41
hivel=74
seq_length=4
seq_position=3
pitch_keycenter=41

<region>
sample=pizz\pizz_f2_pd.wav
lokey=39
hikey=41
hivel=74
seq_length=4
seq_position=4
pitch_keycenter=41

//========================
<group>
sw_lokey=70
sw_hikey=72
sw_last=71
group=3
off_by=3
bend_up=1200
bend_down=-1200
ampeg_release=0.400

<region>
sample=pizz\pizz_f2_ma.wav
lokey=39
hikey=41
lovel=75
hivel=120
seq_length=4
pitch_keycenter=41
amp_velcurve_120=1

<region>
sample=pizz\pizz_f2_mb.wav
lokey=39
hikey=41
lovel=75
hivel=120
seq_length=4
seq_position=2
pitch_keycenter=41
amp_velcurve_120=1

<region>
sample=pizz\pizz_f2_mc.wav
lokey=39
hikey=41
lovel=75
hivel=120
seq_length=4
seq_position=3
pitch_keycenter=41
amp_velcurve_120=1

<region>
sample=pizz\pizz_f2_md.wav
lokey=39
hikey=41
lovel=75
hivel=120
seq_length=4
seq_position=4
pitch_keycenter=41
amp_velcurve_120=1

<region>
sample=pizz\pizz_f2_fa.wav
lokey=39
hikey=41
lovel=121
seq_length=4
pitch_keycenter=41

<region>
sample=pizz\pizz_f2_fb.wav
lokey=39
hikey=41
lovel=121
seq_length=4
seq_position=2
pitch_keycenter=41

<region>
sample=pizz\pizz_f2_fc.wav
lokey=39
hikey=41
lovel=121
seq_length=4
seq_position=3
pitch_keycenter=41

<region>
sample=pizz\pizz_f2_fd.wav
lokey=39
hikey=41
lovel=121
seq_length=4
seq_position=4
pitch_keycenter=41

//========================
<group>
sw_lokey=70
sw_hikey=72
sw_last=71
group=4
off_by=4
bend_up=1200
bend_down=-1200
ampeg_release=0.400
amp_velcurve_54=1

<region>
sample=pizz\pizz_a2_pa.wav
lokey=42
hikey=45
hivel=74
seq_length=4
pitch_keycenter=45

<region>
sample=pizz\pizz_a2_pb.wav
lokey=42
hikey=45
hivel=74
seq_length=4
seq_position=2
pitch_keycenter=45

<region>
sample=pizz\pizz_a2_pc.wav
lokey=42
hikey=45
hivel=74
seq_length=4
seq_position=3
pitch_keycenter=45

<region>
sample=pizz\pizz_a2_pd.wav
lokey=42
hikey=45
hivel=74
seq_length=4
seq_position=4
pitch_keycenter=45

//========================
<group>
sw_lokey=70
sw_hikey=72
sw_last=71
group=4
off_by=4
bend_up=1200
bend_down=-1200
ampeg_release=0.400

<region>
sample=pizz\pizz_a2_ma.wav
lokey=42
hikey=45
lovel=75
hivel=120
seq_length=4
pitch_keycenter=45
amp_velcurve_120=1

<region>
sample=pizz\pizz_a2_mb.wav
lokey=42
hikey=45
lovel=75
hivel=120
seq_length=4
seq_position=2
pitch_keycenter=45
amp_velcurve_120=1

<region>
sample=pizz\pizz_a2_mc.wav
lokey=42
hikey=45
lovel=75
hivel=120
seq_length=4
seq_position=3
pitch_keycenter=45
amp_velcurve_120=1

<region>
sample=pizz\pizz_a2_md.wav
lokey=42
hikey=45
lovel=75
hivel=120
seq_length=4
seq_position=4
pitch_keycenter=45
amp_velcurve_120=1

<region>
sample=pizz\pizz_a2_fa.wav
lokey=42
hikey=45
lovel=121
seq_length=4
pitch_keycenter=45

<region>
sample=pizz\pizz_a2_fb.wav
lokey=42
hikey=45
lovel=121
seq_length=4
seq_position=2
pitch_keycenter=45

<region>
sample=pizz\pizz_a2_fc.wav
lokey=42
hikey=45
lovel=121
seq_length=4
seq_position=3
pitch_keycenter=45

<region>
sample=pizz\pizz_a2_fd.wav
lokey=42
hikey=45
lovel=121
seq_length=4
seq_position=4
pitch_keycenter=45

//========================
<group>
sw_lokey=70
sw_hikey=72
sw_last=71
group=4
off_by=4
bend_up=1200
bend_down=-1200
ampeg_release=0.400
amp_velcurve_54=1

<region>
sample=pizz\pizz_c3_pa.wav
lokey=46
hikey=48
hivel=74
seq_length=4
pitch_keycenter=48

<region>
sample=pizz\pizz_c3_pb.wav
lokey=46
hikey=48
hivel=74
seq_length=4
seq_position=2
pitch_keycenter=48

<region>
sample=pizz\pizz_c3_pc.wav
lokey=46
hikey=48
hivel=74
seq_length=4
seq_position=3
pitch_keycenter=48

<region>
sample=pizz\pizz_c3_pd.wav
lokey=46
hikey=48
hivel=74
seq_length=4
seq_position=4
pitch_keycenter=48

//========================
<group>
sw_lokey=70
sw_hikey=72
sw_last=71
group=4
off_by=4
bend_up=1200
bend_down=-1200
ampeg_release=0.400

<region>
sample=pizz\pizz_c3_ma.wav
lokey=46
hikey=48
lovel=75
hivel=120
seq_length=4
pitch_keycenter=48
amp_velcurve_120=1

<region>
sample=pizz\pizz_c3_mb.wav
lokey=46
hikey=48
lovel=75
hivel=120
seq_length=4
seq_position=2
pitch_keycenter=48
amp_velcurve_120=1

<region>
sample=pizz\pizz_c3_mc.wav
lokey=46
hikey=48
lovel=75
hivel=120
seq_length=4
seq_position=3
pitch_keycenter=48
amp_velcurve_120=1

<region>
sample=pizz\pizz_c3_md.wav
lokey=46
hikey=48
lovel=75
hivel=120
seq_length=4
seq_position=4
pitch_keycenter=48
amp_velcurve_120=1

<region>
sample=pizz\pizz_c3_fa.wav
lokey=46
hikey=48
lovel=121
seq_length=4
pitch_keycenter=48

<region>
sample=pizz\pizz_c3_fb.wav
lokey=46
hikey=48
lovel=121
seq_length=4
seq_position=2
pitch_keycenter=48

<region>
sample=pizz\pizz_c3_fc.wav
lokey=46
hikey=48
lovel=121
seq_length=4
seq_position=3
pitch_keycenter=48

<region>
sample=pizz\pizz_c3_fd.wav
lokey=46
hikey=48
lovel=121
seq_length=4
seq_position=4
pitch_keycenter=48

//========================
<group>
sw_lokey=70
sw_hikey=72
sw_last=71
group=5
off_by=5
bend_up=1200
bend_down=-1200
ampeg_release=0.400
amp_velcurve_54=1

<region>
sample=pizz\pizz_e3_pa.wav
lokey=49
hikey=52
hivel=74
seq_length=3
pitch_keycenter=52

<region>
sample=pizz\pizz_e3_pb.wav
lokey=49
hikey=52
hivel=74
seq_length=3
seq_position=2
pitch_keycenter=52

<region>
sample=pizz\pizz_e3_pc.wav
lokey=49
hikey=52
hivel=74
seq_length=3
seq_position=3
pitch_keycenter=52

//========================
<group>
sw_lokey=70
sw_hikey=72
sw_last=71
group=5
off_by=5
bend_up=1200
bend_down=-1200
ampeg_release=0.400

<region>
sample=pizz\pizz_e3_ma.wav
lokey=49
hikey=52
lovel=75
hivel=120
seq_length=4
pitch_keycenter=52
amp_velcurve_120=1

<region>
sample=pizz\pizz_e3_mb.wav
lokey=49
hikey=52
lovel=75
hivel=120
seq_length=4
seq_position=2
pitch_keycenter=52
amp_velcurve_120=1

<region>
sample=pizz\pizz_e3_mc.wav
lokey=49
hikey=52
lovel=75
hivel=120
seq_length=4
seq_position=3
pitch_keycenter=52
amp_velcurve_120=1

<region>
sample=pizz\pizz_e3_md.wav
lokey=49
hikey=52
lovel=75
hivel=120
seq_length=4
seq_position=4
pitch_keycenter=52
amp_velcurve_120=1

<region>
sample=pizz\pizz_e3_fa.wav
lokey=49
hikey=52
lovel=121
seq_length=4
pitch_keycenter=52

<region>
sample=pizz\pizz_e3_fb.wav
lokey=49
hikey=52
lovel=121
seq_length=4
seq_position=2
pitch_keycenter=52

<region>
sample=pizz\pizz_e3_fc.wav
lokey=49
hikey=52
lovel=121
seq_length=4
seq_position=3
pitch_keycenter=52

<region>
sample=pizz\pizz_e3_fd.wav
lokey=49
hikey=52
lovel=121
seq_length=4
seq_position=4
pitch_keycenter=52

//========================
<group>
sw_lokey=70
sw_hikey=72
sw_last=71
group=5
off_by=5
bend_up=1200
bend_down=-1200
ampeg_release=0.400
amp_velcurve_54=1

<region>
sample=pizz\pizz_g3_pa.wav
lokey=53
hikey=55
hivel=74
seq_length=4
pitch_keycenter=55

<region>
sample=pizz\pizz_g3_pb.wav
lokey=53
hikey=55
hivel=74
seq_length=4
seq_position=2
pitch_keycenter=55

<region>
sample=pizz\pizz_g3_pc.wav
lokey=53
hikey=55
hivel=74
seq_length=4
seq_position=3
pitch_keycenter=55

<region>
sample=pizz\pizz_g3_pd.wav
lokey=53
hikey=55
hivel=74
seq_length=4
seq_position=4
pitch_keycenter=55

//========================
<group>
sw_lokey=70
sw_hikey=72
sw_last=71
group=5
off_by=5
bend_up=1200
bend_down=-1200
ampeg_release=0.400

<region>
sample=pizz\pizz_g3_ma.wav
lokey=53
hikey=55
lovel=75
hivel=120
seq_length=4
pitch_keycenter=55
amp_velcurve_120=1

<region>
sample=pizz\pizz_g3_mb.wav
lokey=53
hikey=55
lovel=75
hivel=120
seq_length=4
seq_position=2
pitch_keycenter=55
amp_velcurve_120=1

<region>
sample=pizz\pizz_g3_mc.wav
lokey=53
hikey=55
lovel=75
hivel=120
seq_length=4
seq_position=3
pitch_keycenter=55
amp_velcurve_120=1

<region>
sample=pizz\pizz_g3_md.wav
lokey=53
hikey=55
lovel=75
hivel=120
seq_length=4
seq_position=4
pitch_keycenter=55
amp_velcurve_120=1

<region>
sample=pizz\pizz_g3_fa.wav
lokey=53
hikey=55
lovel=121
seq_length=4
pitch_keycenter=55

<region>
sample=pizz\pizz_g3_fb.wav
lokey=53
hikey=55
lovel=121
seq_length=4
seq_position=2
pitch_keycenter=55

<region>
sample=pizz\pizz_g3_fc.wav
lokey=53
hikey=55
lovel=121
seq_length=4
seq_position=3
pitch_keycenter=55

<region>
sample=pizz\pizz_g3_fd.wav
lokey=53
hikey=55
lovel=121
seq_length=4
seq_position=4
pitch_keycenter=55

//========================
<group>
sw_lokey=70
sw_hikey=72
sw_last=71
group=5
off_by=5
bend_up=1200
bend_down=-1200
ampeg_release=0.400
amp_velcurve_54=1

<region>
sample=pizz\pizz_a3_pa.wav
lokey=56
hikey=60
hivel=74
seq_length=4
pitch_keycenter=57

<region>
sample=pizz\pizz_a3_pb.wav
lokey=56
hikey=60
hivel=74
seq_length=4
seq_position=2
pitch_keycenter=57

<region>
sample=pizz\pizz_a3_pc.wav
lokey=56
hikey=60
hivel=74
seq_length=4
seq_position=3
pitch_keycenter=57

<region>
sample=pizz\pizz_a3_pd.wav
lokey=56
hikey=60
hivel=74
seq_length=4
pitch_keycenter=57

//========================
<group>
sw_lokey=70
sw_hikey=72
sw_last=71
group=5
off_by=5
bend_up=1200
bend_down=-1200
ampeg_release=0.400

<region>
sample=pizz\pizz_a3_ma.wav
lokey=56
hikey=60
lovel=75
hivel=120
seq_length=4
pitch_keycenter=57
amp_velcurve_120=1

<region>
sample=pizz\pizz_a3_mb.wav
lokey=56
hikey=60
lovel=75
hivel=120
seq_length=4
seq_position=2
pitch_keycenter=57
amp_velcurve_120=1

<region>
sample=pizz\pizz_a3_mc.wav
lokey=56
hikey=60
lovel=75
hivel=120
seq_length=4
seq_position=3
pitch_keycenter=57
amp_velcurve_120=1

<region>
sample=pizz\pizz_a3_md.wav
lokey=56
hikey=60
lovel=75
hivel=120
seq_length=4
seq_position=4
pitch_keycenter=57
amp_velcurve_120=1

<region>
sample=pizz\pizz_a3_fa.wav
lokey=56
hikey=60
lovel=121
seq_length=4
pitch_keycenter=57

<region>
sample=pizz\pizz_a3_fb.wav
lokey=56
hikey=60
lovel=121
seq_length=4
seq_position=2
pitch_keycenter=57

<region>
sample=pizz\pizz_a3_fc.wav
lokey=56
hikey=60
lovel=121
seq_length=4
seq_position=3
pitch_keycenter=57

<region>
sample=pizz\pizz_a3_fd.wav
lokey=56
hikey=60
lovel=121
seq_length=4
seq_position=4
pitch_keycenter=57

<global>
<region>
sample=A3.wav
sample=..\Samples\close\c4_pp_rr3.wav
sample=*sine
sample=*saw
sample=*square
sample=*triangle
sample=*tri
sample=*noise
sample=*silence

//2015-2016 Rudi Fiasco
//rev.22.08.2016

<global>
pan=16

//note on dampened

<group> group=0 trigger=attack ampeg_release=0.5 volume=9
<region> sample=K18\A0.pp.wav lovel=1 hivel=22 lokey=21 hikey=22 pitch_keycenter=21
<region> sample=K18\A0.p.wav lovel=23 hivel=43 lokey=21 hikey=22 pitch_keycenter=21
<region> sample=K18\A0.mf.wav lovel=44 hivel=64 lokey=21 hikey=22 pitch_keycenter=21
<region> sample=K18\A0.f.wav lovel=65 hivel=85 lokey=21 hikey=22 pitch_keycenter=21
<region> sample=K18\A0.ff.wav lovel=86 hivel=106 lokey=21 hikey=22 pitch_keycenter=21
<region> sample=K18\A0.sf.wav lovel=107 hivel=127 lokey=21 hikey=22 pitch_keycenter=21

<region> sample=K18\C1.pp.wav lovel=1 hivel=22 lokey=23 hikey=25 pitch_keycenter=24
<region> sample=K18\C1.p.wav lovel=23 hivel=43 lokey=23 hikey=25 pitch_keycenter=24
<region> sample=K18\C1.mf.wav lovel=44 hivel=64 lokey=23 hikey=25 pitch_keycenter=24
<region> sample=K18\C1.f.wav lovel=65 hivel=85 lokey=23 hikey=25 pitch_keycenter=24
<region> sample=K18\C1.ff.wav lovel=86 hivel=106 lokey=23 hikey=25 pitch_keycenter=24
<region> sample=K18\C1.sf.wav lovel=107 hivel=127 lokey=23 hikey=25 pitch_keycenter=24

<region> sample=K18\D#1.pp.wav lovel=1 hivel=22 lokey=26 hikey=28 pitch_keycenter=27
<region> sample=K18\D#1.p.wav lovel=23 hivel=43 lokey=26 hikey=28 pitch_keycenter=27
<region> sample=K18\D#1.mf.wav lovel=44 hivel=64 lokey=26 hikey=28 pitch_keycenter=27
<region> sample=K18\D#1.f.wav lovel=65 hivel=85 lokey=26 hikey=28 pitch_keycenter=27
<region> sample=K18\D#1.ff.wav lovel=86 hivel=106 lokey=26 hikey=28 pitch_keycenter=27
<region> sample=K18\D#1.sf.wav lovel=107 hivel=127 lokey=26 hikey=28 pitch_keycenter=27

<region> sample=K18\F#1.pp.wav lovel=1 hivel=22 lokey=29 hikey=31 pitch_keycenter=30 tune=-10
<region> sample=K18\F#1.p.wav lovel=23 hivel=43 lokey=29 hikey=31 pitch_keycenter=30 tune=-10
<region> sample=K18\F#1.mf.wav lovel=44 hivel=64 lokey=29 hikey=31 pitch_keycenter=30 tune=-10
<region> sample=K18\F#1.f.wav lovel=65 hivel=85 lokey=29 hikey=31 pitch_keycenter=30 tune=-10
<region> sample=K18\F#1.ff.wav lovel=86 hivel=106 lokey=29 hikey=31 pitch_keycenter=30 tune=-10
<region> sample=K18\F#1.sf.wav lovel=107 hivel=127 lokey=29 hikey=31 pitch_keycenter=30 tune=-10

<region> sample=K18\A1.pp.wav lovel=1 hivel=22 lokey=32 hikey=34 pitch_keycenter=33 tune=8
<region> sample=K18\A1.p.wav lovel=23 hivel=43 lokey=32 hikey=34 pitch_keycenter=33 tune=8
<region> sample=K18\A1.mf.wav lovel=44 hivel=64 lokey=32 hikey=34 pitch_keycenter=33 tune=8
<region> sample=K18\A1.f.wav lovel=65 hivel=85 lokey=32 hikey=34 pitch_keycenter=33 tune=8
<region> sample=K18\A1.ff.wav lovel=86 hivel=106 lokey=32 hikey=34 pitch_keycenter=33 tune=8
<region> sample=K18\A1.sf.wav lovel=107 hivel=127 lokey=32 hikey=34 pitch_keycenter=33 tune=8

<region> sample=K18\C2.pp.wav lovel=1 hivel=22 lokey=35 hikey=37 pitch_keycenter=36 tune=8
<region> sample=K18\C2.p.wav lovel=23 hivel=43 lokey=35 hikey=37 pitch_keycenter=36 tune=8
<region> sample=K18\C2.mf.wav lovel=44 hivel=64 lokey=35 hikey=37 pitch_keycenter=36 tune=8
<region> sample=K18\C2.f.wav lovel=65 hivel=85 lokey=35 hikey=37 pitch_keycenter=36 tune=8
<region> sample=K18\C2.ff.wav lovel=86 hivel=106 lokey=35 hikey=37 pitch_keycenter=36 tune=8
<region> sample=K18\C2.sf.wav lovel=107 hivel=127 lokey=35 hikey=37 pitch_keycenter=36 tune=8

<region> sample=K18\D#2.pp.wav lovel=1 hivel=22 lokey=38 hikey=40 pitch_keycenter=39 tune=9
<region> sample=K18\D#2.p.wav lovel=23 hivel=43 lokey=38 hikey=40 pitch_keycenter=39 tune=9
<region> sample=K18\D#2.mf.wav lovel=44 hivel=64 lokey=38 hikey=40 pitch_keycenter=39 tune=9
<region> sample=K18\D#2.f.wav lovel=65 hivel=85 lokey=38 hikey=40 pitch_keycenter=39 tune=9
<region> sample=K18\D#2.ff.wav lovel=86 hivel=106 lokey=38 hikey=40 pitch_keycenter=39 tune=9
<region> sample=K18\D#2.sf.wav lovel=107 hivel=127 lokey=38 hikey=40 pitch_keycenter=39 tune=9

<region> sample=K18\F#2.pp.wav lovel=1 hivel=22 lokey=41 hikey=43 pitch_keycenter=42 tune=8
<region> sample=K18\F#2.p.wav lovel=23 hivel=43 lokey=41 hikey=43 pitch_keycenter=42 tune=8
<region> sample=K18\F#2.mf.wav lovel=44 hivel=64 lokey=41 hikey=43 pitch_keycenter=42 tune=8
<region> sample=K18\F#2.f.wav lovel=65 hivel=85 lokey=41 hikey=43 pitch_keycenter=42 tune=8
<region> sample=K18\F#2.ff.wav lovel=86 hivel=106 lokey=41 hikey=43 pitch_keycenter=42 tune=8
<region> sample=K18\F#2.sf.wav lovel=107 hivel=127 lokey=41 hikey=43 pitch_keycenter=42 tune=8

<region> sample=K18\A2.pp.wav lovel=1 hivel=22 lokey=44 hikey=46 pitch_keycenter=45 tune=4
<region> sample=K18\A2.p.wav lovel=23 hivel=43 lokey=44 hikey=46 pitch_keycenter=45 tune=4
<region> sample=K18\A2.mf.wav lovel=44 hivel=64 lokey=44 hikey=46 pitch_keycenter=45 tune=4
<region> sample=K18\A2.f.wav lovel=65 hivel=85 lokey=44 hikey=46 pitch_keycenter=45 tune=4
<region> sample=K18\A2.ff.wav lovel=86 hivel=106 lokey=44 hikey=46 pitch_keycenter=45 tune=4
<region> sample=K18\A2.sf.wav lovel=107 hivel=127 lokey=44 hikey=46 pitch_keycenter=45 tune=4

<region> sample=K18\C3.pp.wav lovel=1 hivel=22 lokey=47 hikey=49 pitch_keycenter=48 tune=4
<region> sample=K18\C3.p.wav lovel=23 hivel=43 lokey=47 hikey=49 pitch_keycenter=48 tune=4
<region> sample=K18\C3.mf.wav lovel=44 hivel=64 lokey=47 hikey=49 pitch_keycenter=48 tune=4
<region> sample=K18\C3.f.wav lovel=65 hivel=85 lokey=47 hikey=49 pitch_keycenter=48 tune=4
<region> sample=K18\C3.ff.wav lovel=86 hivel=106 lokey=47 hikey=49 pitch_keycenter=48 tune=4
<region> sample=K18\C3.sf.wav lovel=107 hivel=127 lokey=47 hikey=49 pitch_keycenter=48 tune=4

<region> sample=K18\D#3.pp.wav lovel=1 hivel=22 lokey=50 hikey=52 pitch_keycenter=51 tune=8
<region> sample=K18\D#3.p.wav lovel=23 hivel=43 lokey=50 hikey=52 pitch_keycenter=51 tune=8
<region> sample=K18\D#3.mf.wav lovel=44 hivel=64 lokey=50 hikey=52 pitch_keycenter=51 tune=8
<region> sample=K18\D#3.f.wav lovel=65 hivel=85 lokey=50 hikey=52 pitch_keycenter=51 tune=8
<region> sample=K18\D#3.ff.wav lovel=86 hivel=106 lokey=50 hikey=52 pitch_keycenter=51 tune=8
<region> sample=K18\D#3.sf.wav lovel=107 hivel=127 lokey=50 hikey=52 pitch_keycenter=51 tune=8

<region> sample=K18\F#3.pp.wav lovel=1 hivel=22 lokey=53 hikey=55 pitch_keycenter=54 tune=-8 offset=400
<region> sample=K18\F#3.p.wav lovel=23 hivel=43 lokey=53 hikey=55 pitch_keycenter=54 tune=-8 offset=400
<region> sample=K18\F#3.mf.wav lovel=44 hivel=64 lokey=53 hikey=55 pitch_keycenter=54 tune=-8 offset=400
<region> sample=K18\F#3.f.wav lovel=65 hivel=85 lokey=53 hikey=55 pitch_keycenter=54 tune=-8 offset=400
<region> sample=K18\F#3.ff.wav lovel=86 hivel=106 lokey=53 hikey=55 pitch_keycenter=54 tune=-8 offset=400
<region> sample=K18\F#3.sf.wav lovel=107 hivel=127 lokey=53 hikey=55 pitch_keycenter=54 tune=-8 offset=400

<region> sample=K18\A3.pp.wav lovel=1 hivel=22 lokey=56 hikey=58 pitch_keycenter=57 offset=400
<region> sample=K18\A3.p.wav lovel=23 hivel=43 lokey=56 hikey=58 pitch_keycenter=57 offset=400
<region> sample=K18\A3.mf.wav lovel=44 hivel=64 lokey=56 hikey=58 pitch_keycenter=57 offset=400
<region> sample=K18\A3.f.wav lovel=65 hivel=85 lokey=56 hikey=58 pitch_keycenter=57 offset=400
<region> sample=K18\A3.ff.wav lovel=86 hivel=106 lokey=56 hikey=58 pitch_keycenter=57 offset=400
<region> sample=K18\A3.sf.wav lovel=107 hivel=127 lokey=56 hikey=58 pitch_keycenter=57 offset=400

<region> sample=K18\C4.pp.wav lovel=1 hivel=22 lokey=59 hikey=61 pitch_keycenter=60
<region> sample=K18\C4.p.wav lovel=23 hivel=43 lokey=59 hikey=61 pitch_keycenter=60
<region> sample=K18\C4.mf.wav lovel=44 hivel=64 lokey=59 hikey=61 pitch_keycenter=60
<region> sample=K18\C4.f.wav lovel=65 hivel=85 lokey=59 hikey=61 pitch_keycenter=60
<region> sample=K18\C4.ff.wav lovel=86 hivel=106 lokey=59 hikey=61 pitch_keycenter=60
<region> sample=K18\C4.sf.wav lovel=107 hivel=127 lokey=59 hikey=61 pitch_keycenter=60

<region> sample=K18\D#4.pp.wav lovel=1 hivel=22 lokey=62 hikey=64 pitch_keycenter=63
<region> sample=K18\D#4.p.wav lovel=23 hivel=43 lokey=62 hikey=64 pitch_keycenter=63
<region> sample=K18\D#4.mf.wav lovel=44 hivel=64 lokey=62 hikey=64 pitch_keycenter=63
<region> sample=K18\D#4.f.wav lovel=65 hivel=85 lokey=62 hikey=64 pitch_keycenter=63
<region> sample=K18\D#4.ff.wav lovel=86 hivel=106 lokey=62 hikey=64 pitch_keycenter=63
<region> sample=K18\D#4.sf.wav lovel=107 hivel=127 lokey=62 hikey=64 pitch_keycenter=63

<region> sample=K18\F#4.pp.wav lovel=1 hivel=22 lokey=65 hikey=67 pitch_keycenter=66 offset=200
<region> sample=K18\F#4.p.wav lovel=23 hivel=43 lokey=65 hikey=67 pitch_keycenter=66 offset=200
<region> sample=K18\F#4.mf.wav lovel=44 hivel=64 lokey=65 hikey=67 pitch_keycenter=66 offset=200
<region> sample=K18\F#4.f.wav lovel=65 hivel=85 lokey=65 hikey=67 pitch_keycenter=66 offset=200
<region> sample=K18\F#4.ff.wav lovel=86 hivel=106 lokey=65 hikey=67 pitch_keycenter=66 offset=200
<region> sample=K18\F#4.sf.wav lovel=107 hivel=127 lokey=65 hikey=67 pitch_keycenter=66 offset=200

<region> sample=K18\A4.pp.wav lovel=1 hivel=22 lokey=68 hikey=70 pitch_keycenter=69
<region> sample=K18\A4.p.wav lovel=23 hivel=43 lokey=68 hikey=70 pitch_keycenter=69
<region> sample=K18\A4.mf.wav lovel=44 hivel=64 lokey=68 hikey=70 pitch_keycenter=69
<region> sample=K18\A4.f.wav lovel=65 hivel=85 lokey=68 hikey=70 pitch_keycenter=69
<region> sample=K18\A4.ff.wav lovel=86 hivel=106 lokey=68 hikey=70 pitch_keycenter=69
<region> sample=K18\A4.sf.wav lovel=107 hivel=127 lokey=68 hikey=70 pitch_keycenter=69

<region> sample=K18\C5.pp.wav lovel=1 hivel=22 lokey=71 hikey=73 pitch_keycenter=72 tune=4
<region> sample=K18\C5.p.wav lovel=23 hivel=43 lokey=71 hikey=73 pitch_keycenter=72 tune=4
<region> sample=K18\C5.mf.wav lovel=44 hivel=64 lokey=71 hikey=73 pitch_keycenter=72 tune=4
<region> sample=K18\C5.f.wav lovel=65 hivel=85 lokey=71 hikey=73 pitch_keycenter=72 tune=4
<region> sample=K18\C5.ff.wav lovel=86 hivel=106 lokey=71 hikey=73 pitch_keycenter=72 tune=4
<region> sample=K18\C5.sf.wav lovel=107 hivel=127 lokey=71 hikey=73 pitch_keycenter=72 tune=4

<region> sample=K18\D#5.pp.wav lovel=1 hivel=22 lokey=74 hikey=76 pitch_keycenter=75
<region> sample=K18\D#5.p.wav lovel=23 hivel=43 lokey=74 hikey=76 pitch_keycenter=75
<region> sample=K18\D#5.mf.wav lovel=44 hivel=64 lokey=74 hikey=76 pitch_keycenter=75
<region> sample=K18\D#5.f.wav lovel=65 hivel=85 lokey=74 hikey=76 pitch_keycenter=75
<region> sample=K18\D#5.ff.wav lovel=86 hivel=106 lokey=74 hikey=76 pitch_keycenter=75
<region> sample=K18\D#5.sf.wav lovel=107 hivel=127 lokey=74 hikey=76 pitch_keycenter=75

<region> sample=K18\F#5.pp.wav lovel=1 hivel=22 lokey=77 hikey=79 pitch_keycenter=78 tune=-4
<region> sample=K18\F#5.p.wav lovel=23 hivel=43 lokey=77 hikey=79 pitch_keycenter=78 tune=-4
<region> sample=K18\F#5.mf.wav lovel=44 hivel=64 lokey=77 hikey=79 pitch_keycenter=78 tune=-4
<region> sample=K18\F#5.f.wav lovel=65 hivel=85 lokey=77 hikey=79 pitch_keycenter=78 tune=-4
<region> sample=K18\F#5.ff.wav lovel=86 hivel=106 lokey=77 hikey=79 pitch_keycenter=78 tune=-4
<region> sample=K18\F#5.sf.wav lovel=107 hivel=127 lokey=77 hikey=79 pitch_keycenter=78 tune=-4

<region> sample=K18\A5.pp.wav lovel=1 hivel=22 lokey=80 hikey=82 pitch_keycenter=81 offset=400
<region> sample=K18\A5.p.wav lovel=23 hivel=43 lokey=80 hikey=82 pitch_keycenter=81 offset=400
<region> sample=K18\A5.mf.wav lovel=44 hivel=64 lokey=80 hikey=82 pitch_keycenter=81 offset=400
<region> sample=K18\A5.f.wav lovel=65 hivel=85 lokey=80 hikey=82 pitch_keycenter=81 offset=400
<region> sample=K18\A5.ff.wav lovel=86 hivel=106 lokey=80 hikey=82 pitch_keycenter=81 offset=400
<region> sample=K18\A5.sf.wav lovel=107 hivel=127 lokey=80 hikey=82 pitch_keycenter=81 offset=400

<region> sample=K18\C6.pp.wav lovel=1 hivel=22 lokey=83 hikey=85 pitch_keycenter=84 tune=8
<region> sample=K18\C6.p.wav lovel=23 hivel=43 lokey=83 hikey=85 pitch_keycenter=84 tune=8
<region> sample=K18\C6.mf.wav lovel=44 hivel=64 lokey=83 hikey=85 pitch_keycenter=84 tune=8
<region> sample=K18\C6.f.wav lovel=65 hivel=85 lokey=83 hikey=85 pitch_keycenter=84 tune=8
<region> sample=K18\C6.ff.wav lovel=86 hivel=106 lokey=83 hikey=85 pitch_keycenter=84 tune=8
<region> sample=K18\C6.sf.wav lovel=107 hivel=127 lokey=83 hikey=85 pitch_keycenter=84 tune=8

<region> sample=K18\D#6.pp.wav lovel=1 hivel=22 lokey=86 hikey=88 pitch_keycenter=87 tune=-4 offset=100
<region> sample=K18\D#6.p.wav lovel=23 hivel=43 lokey=86 hikey=88 pitch_keycenter=87 tune=-4 offset=100
<region> sample=K18\D#6.mf.wav lovel=44 hivel=64 lokey=86 hikey=88 pitch_keycenter=87 tune=-4 offset=100
<region> sample=K18\D#6.f.wav lovel=65 hivel=85 lokey=86 hikey=88 pitch_keycenter=87 tune=-4 offset=100
<region> sample=K18\D#6.ff.wav lovel=86 hivel=106 lokey=86 hikey=88 pitch_keycenter=87 tune=-4 offset=100
<region> sample=K18\D#6.sf.wav lovel=107 hivel=127 lokey=86 hikey=88 pitch_keycenter=87 tune=-4 offset=100

//note on undampened

<group> group=1 trigger=attack ampeg_release=6 volume=9
<region> sample=K18\F#6.pp.wav lovel=1 hivel=22 lokey=89 hikey=91 pitch_keycenter=90 tune=-14
<region> sample=K18\F#6.p.wav lovel=23 hivel=43 lokey=89 hikey=91 pitch_keycenter=90 tune=-14
<region> sample=K18\F#6.mf.wav lovel=44 hivel=64 lokey=89 hikey=91 pitch_keycenter=90 tune=-14
<region> sample=K18\F#6.f.wav lovel=65 hivel=85 lokey=89 hikey=91 pitch_keycenter=90 tune=-14
<region> sample=K18\F#6.ff.wav lovel=86 hivel=106 lokey=89 hikey=91 pitch_keycenter=90 tune=-14
<region> sample=K18\F#6.sf.wav lovel=107 hivel=127 lokey=89 hikey=91 pitch_keycenter=90 tune=-14

<region> sample=K18\A6.pp.wav lovel=1 hivel=22 lokey=92 hikey=94 pitch_keycenter=93 offset=200
<region> sample=K18\A6.p.wav lovel=23 hivel=43 lokey=92 hikey=94 pitch_keycenter=93 offset=200
<region> sample=K18\A6.mf.wav lovel=44 hivel=64 lokey=92 hikey=94 pitch_keycenter=93 offset=200
<region> sample=K18\A6.f.wav lovel=65 hivel=85 lokey=92 hikey=94 pitch_keycenter=93 offset=200
<region> sample=K18\A6.ff.wav lovel=86 hivel=106 lokey=92 hikey=94 pitch_keycenter=93 offset=200
<region> sample=K18\A6.sf.wav lovel=107 hivel=127 lokey=92 hikey=94 pitch_keycenter=93 offset=200

<region> sample=K18\C7.pp.wav lovel=1 hivel=22 lokey=95 hikey=97 pitch_keycenter=96 tune=10 offset=200
<region> sample=K18\C7.p.wav lovel=23 hivel=43 lokey=95 hikey=97 pitch_keycenter=96 tune=10 offset=200
<region> sample=K18\C7.mf.wav lovel=44 hivel=64 lokey=95 hikey=97 pitch_keycenter=96 tune=10 offset=200
<region> sample=K18\C7.f.wav lovel=65 hivel=85 lokey=95 hikey=97 pitch_keycenter=96 tune=10 offset=200
<region> sample=K18\C7.ff.wav lovel=86 hivel=106 lokey=95 hikey=97 pitch_keycenter=96 tune=10 offset=200
<region> sample=K18\C7.sf.wav lovel=107 hivel=127 lokey=95 hikey=97 pitch_keycenter=96 tune=10 offset=200

<region> sample=K18\D#7.pp.wav lovel=1 hivel=22 lokey=98 hikey=100 pitch_keycenter=99 offset=200
<region> sample=K18\D#7.p.wav lovel=23 hivel=43 lokey=98 hikey=100 pitch_keycenter=99 offset=200
<region> sample=K18\D#7.mf.wav lovel=44 hivel=64 lokey=98 hikey=100 pitch_keycenter=99 offset=200
<region> sample=K18\D#7.f.wav lovel=65 hivel=85 lokey=98 hikey=100 pitch_keycenter=99 offset=200
<region> sample=K18\D#7.ff.wav lovel=86 hivel=106 lokey=98 hikey=100 pitch_keycenter=99 offset=200
<region> sample=K18\D#7.sf.wav lovel=107 hivel=127 lokey=98 hikey=100 pitch_keycenter=99 offset=200

<region> sample=K18\F#7.pp.wav lovel=1 hivel=22 lokey=101 hikey=103 pitch_keycenter=102
<region> sample=K18\F#7.p.wav lovel=23 hivel=43 lokey=101 hikey=103 pitch_keycenter=102
<region> sample=K18\F#7.mf.wav lovel=44 hivel=64 lokey=101 hikey=103 pitch_keycenter=102
<region> sample=K18\F#7.f.wav lovel=65 hivel=85 lokey=101 hikey=103 pitch_keycenter=102
<region> sample=K18\F#7.ff.wav lovel=86 hivel=106 lokey=101 hikey=103 pitch_keycenter=102
<region> sample=K18\F#7.sf.wav lovel=107 hivel=127 lokey=101 hikey=103 pitch_keycenter=102

<region> sample=K18\A7.pp.wav lovel=1 hivel=22 lokey=104 hikey=106 pitch_keycenter=105
<region> sample=K18\A7.p.wav lovel=23 hivel=43 lokey=104 hikey=106 pitch_keycenter=105
<region> sample=K18\A7.mf.wav lovel=44 hivel=64 lokey=104 hikey=106 pitch_keycenter=105
<region> sample=K18\A7.f.wav lovel=65 hivel=85 lokey=104 hikey=106 pitch_keycenter=105
<region> sample=K18\A7.ff.wav lovel=86 hivel=106 lokey=104 hikey=106 pitch_keycenter=105
<region> sample=K18\A7.sf.wav lovel=107 hivel=127 lokey=104 hikey=106 pitch_keycenter=105

<region> sample=K18\C8.pp.wav lovel=1 hivel=22 lokey=107 hikey=108 pitch_keycenter=108
<region> sample=K18\C8.p.wav lovel=23 hivel=43 lokey=107 hikey=108 pitch_keycenter=108
<region> sample=K18\C8.mf.wav lovel=44 hivel=64 lokey=107 hikey=108 pitch_keycenter=108
<region> sample=K18\C8.f.wav lovel=65 hivel=85 lokey=107 hikey=108 pitch_keycenter=108
<region> sample=K18\C8.ff.wav lovel=86 hivel=106 lokey=107 hikey=108 pitch_keycenter=108
<region> sample=K18\C8.sf.wav lovel=107 hivel=127 lokey=107 hikey=108 pitch_keycenter=108

//note off dampened

<group> group=2 trigger=release polyphony=1 volume=-3
<region> sample=K18\A0.rel.wav lokey=21 hikey=22 pitch_keytrack=0 amp_veltrack=50

<group> group=3 trigger=release polyphony=1 volume=-3
<region> sample=K18\C1.rel.wav lokey=23 hikey=25 pitch_keytrack=0 amp_veltrack=50

<group> group=4 trigger=release polyphony=1 volume=-3
<region> sample=K18\D#1.rel.wav lokey=26 hikey=28 pitch_keytrack=0 amp_veltrack=50

<group> group=5 trigger=release polyphony=1 volume=-3
<region> sample=K18\F#1.rel.wav lokey=29 hikey=31 pitch_keytrack=0 amp_veltrack=50

<group> group=6 trigger=release polyphony=1 volume=-3
<region> sample=K18\A1.rel.wav lokey=32 hikey=34 pitch_keytrack=0 amp_veltrack=50

<group> group=7 trigger=release polyphony=1 volume=-3
<region> sample=K18\C2.rel.wav lokey=35 hikey=37 pitch_keytrack=0 amp_veltrack=50

<group> group=8 trigger=release polyphony=1 volume=-3
<region> sample=K18\D#2.rel.wav lokey=38 hikey=40 pitch_keytrack=0 amp_veltrack=50

<group> group=9 trigger=release polyphony=1 volume=-3
<region> sample=K18\F#2.rel.wav lokey=41 hikey=43 pitch_keytrack=0 amp_veltrack=50

<group> group=10 trigger=release polyphony=1 volume=-3
<region> sample=K18\A2.rel.wav lokey=44 hikey=46 pitch_keytrack=0 amp_veltrack=50

<group> group=11 trigger=release polyphony=1 volume=-3
<region> sample=K18\C3.rel.wav lokey=47 hikey=49 pitch_keytrack=0 amp_veltrack=50

<group> group=12 trigger=release polyphony=1 volume=-3
<region> sample=K18\D#3.rel.wav lokey=50 hikey=52 pitch_keytrack=0 amp_veltrack=50

<group> group=13 trigger=release polyphony=1 volume=-3
<region> sample=K18\F#3.rel.wav lokey=53 hikey=55 pitch_keytrack=0 amp_veltrack=50

<group> group=14 trigger=release polyphony=1 volume=-3
<region> sample=K18\A3.rel.wav lokey=56 hikey=58 pitch_keytrack=0 amp_veltrack=50

<group> group=15 trigger=release polyphony=1 volume=-3
<region> sample=K18\C4.rel.wav lokey=59 hikey=61 pitch_keytrack=0 amp_veltrack=50

<group> group=16 trigger=release polyphony=1 volume=-3
<region> sample=K18\D#4.rel.wav lokey=62 hikey=64 pitch_keytrack=0 amp_veltrack=50

<group> group=17 trigger=release polyphony=1 volume=-3
<region> sample=K18\F#4.rel.wav lokey=65 hikey=67 pitch_keytrack=0 amp_veltrack=50

<group> group=18 trigger=release polyphony=1 volume=-3
<region> sample=K18\A4.rel.wav lokey=68 hikey=70 pitch_keytrack=0 amp_veltrack=50

<group> group=19 trigger=release polyphony=1 volume=-3
<region> sample=K18\C5.rel.wav lokey=71 hikey=73 pitch_keytrack=0 amp_veltrack=50

<group> group=20 trigger=release polyphony=1 volume=-3
<region> sample=K18\D#5.rel.wav lokey=74 hikey=76 pitch_keytrack=0 amp_veltrack=50

<group> group=21 trigger=release polyphony=1 volume=-3
<region> sample=K18\F#5.rel.wav lokey=77 hikey=79 pitch_keytrack=0 amp_veltrack=50

<group> group=22 trigger=release polyphony=1 volume=-3
<region> sample=K18\A5.rel.wav lokey=80 hikey=82 pitch_keytrack=0 amp_veltrack=50

<group> group=23 trigger=release polyphony=1 volume=-3
<region> sample=K18\C6.rel.wav lokey=83 hikey=85 pitch_keytrack=0 amp_veltrack=50

<group> group=24 trigger=release polyphony=1 volume=-3
<region> sample=K18\D#6.rel.wav lokey=86 hikey=88 pitch_keytrack=0 amp_veltrack=50

//note off undampened

<group> group=25 trigger=release polyphony=1 volume=-3
<region> sample=K18\F#6.rel.wav lokey=89 hikey=91 pitch_keytrack=0 amp_veltrack=50

<group> group=26 trigger=release polyphony=1 volume=-3
<region> sample=K18\A6.rel.wav lokey=92 hikey=94 pitch_keytrack=0 amp_veltrack=50

<group> group=27 trigger=release polyphony=1 volume=-3
<region> sample=K18\C7.rel.wav lokey=95 hikey=97 pitch_keytrack=0 amp_veltrack=50

<group> group=28 trigger=release polyphony=1 volume=-3
<region> sample=K18\D#7.rel.wav lokey=98 hikey=100 pitch_keytrack=0 amp_veltrack=50

<group> group=29 trigger=release polyphony=1 volume=-3
<region> sample=K18\F#7.rel.wav lokey=101 hikey=103 pitch_keytrack=0 amp_veltrack=50

<group> group=30 trigger=release polyphony=1 volume=-3
<region> sample=K18\A7.rel.wav lokey=104 hikey=106 pitch_keytrack=0 amp_veltrack=50

<group> group=31 trigger=release polyphony=1 volume=-3
<region> sample=K18\C8.rel.wav lokey=107 hikey=108 pitch_keytrack=0 amp_veltrack=50

//sustain pedal

<group> group=32 lokey=-1 on_locc64=126 on_hicc64=127 off_by=33 volume=-9
<region> sample=K18\pedal.on.wav

<group> group=33 lokey=-1 on_locc64=0 on_hicc64=1 volume=-9
<region> sample=K18\pedal.off.wav